<?xml version="1.0" encoding="utf-8"?>
<svg version="1.1" id="Layer_1" x="0px" y="0px" width="100%" viewBox="0 0 512 512" enable-background="new 0 0 512 512" xmlns="http://www.w3.org/2000/svg">
  <path opacity="1.000000" stroke="none" d=" M337.778503,355.041626 C338.848999,356.140808 339.951172,357.235931 339.953522,358.333435 C340.037201,397.485870 340.073059,436.638641 339.970581,475.790985 C339.947754,484.510773 333.482635,490.753387 324.730774,490.969177 C319.735626,491.092346 314.730438,491.128326 309.737793,490.962524 C301.246399,490.680542 295.091400,484.428894 294.876984,475.936127 C294.755798,471.135101 294.855103,466.328522 294.855103,461.195740 C269.624390,461.195740 244.732956,461.195740 219.206680,461.195740 C219.206680,465.964203 219.293900,470.742584 219.187988,475.516663 C218.985580,484.640625 212.858627,490.770538 203.743256,490.979553 C199.247208,491.082642 194.746307,491.044769 190.248611,490.989166 C180.326248,490.866516 174.046570,484.664642 174.024261,474.719818 C173.962250,447.063202 174.001740,419.406311 174.001297,391.749542 C174.001099,379.756683 174.001266,367.763794 174.001266,355.038696 C228.512665,355.038696 282.904999,355.038696 337.778503,355.041626 M259.499847,445.749908 C271.113770,445.749908 282.727722,445.749908 294.844360,445.749908 C294.844360,430.911224 294.890625,416.629181 294.824738,402.347626 C294.792114,395.277496 292.288696,392.891541 285.060577,392.879822 C266.400238,392.849609 247.739807,392.849792 229.079468,392.879150 C221.641479,392.890869 219.276276,395.259613 219.247696,402.782776 C219.198318,415.778229 219.223022,428.774017 219.251541,441.769592 C219.254303,443.027740 219.501602,444.285400 219.657349,445.749908 C232.867233,445.749908 245.683517,445.749908 259.499847,445.749908 z" style="fill: rgb(147, 51, 234);"/>
  <path opacity="1.000000" stroke="none" d=" M251.999756,264.580109 C190.012665,264.580353 128.525330,264.503906 67.039055,264.726288 C62.113689,264.744080 61.110779,262.878998 60.891617,258.800171 C60.166981,245.314102 69.813034,234.713089 83.513847,234.297562 C89.316353,234.121597 95.128647,234.268219 101.450882,234.268219 C101.450882,216.741699 101.450882,199.520660 101.450882,181.943665 C112.202217,181.186417 119.819839,176.218033 125.813354,167.753220 C127.187843,165.811996 132.047760,166.338654 135.999161,165.599426 C135.999161,188.895355 135.999161,211.277725 135.999161,233.956055 C218.255081,233.956055 299.964508,233.956055 382.171326,233.956055 C382.171326,211.477417 382.171326,189.075409 382.171326,166.673416 C382.602325,166.252167 383.033325,165.830933 383.464325,165.409683 C385.505371,166.713852 388.131409,167.581924 389.485352,169.398270 C395.109253,176.942825 402.390472,181.215454 412.247864,181.871979 C412.247864,199.252274 412.247864,216.488083 412.247864,234.263336 C418.531158,234.263336 424.320038,234.160873 430.104126,234.283615 C444.312958,234.585175 454.186462,245.496338 453.129211,259.367615 C452.840515,263.155334 451.739258,264.702209 447.458069,264.691772 C382.472260,264.533295 317.485962,264.580780 251.999756,264.580109 z" style="fill: rgb(147, 51, 234);"/>
  <path opacity="1.000000" stroke="none" d=" M297.000000,339.998199 C250.856094,339.998199 205.212173,339.998199 159.615662,339.998199 C155.142609,317.367004 172.106766,295.204468 194.804642,294.973969 C236.131119,294.554321 277.466766,294.596222 318.794556,294.937408 C338.973267,295.103973 354.738739,311.776611 355.060425,332.037964 C355.099670,334.509735 355.065765,336.982697 355.065765,339.998199 C335.718536,339.998199 316.609283,339.998199 297.000000,339.998199 z" style="fill: rgb(147, 51, 234);"/>
  <path opacity="1.000000" stroke="none" d=" M114.002167,399.452454 C109.840782,399.452484 106.178635,399.452484 102.098495,399.452484 C102.098495,359.597748 102.098495,319.908569 102.098495,279.943787 C113.155807,279.943787 124.257599,279.943787 135.764801,279.943787 C135.764801,319.479431 135.764801,359.170166 135.764801,399.452454 C128.699463,399.452454 121.600441,399.452454 114.002167,399.452454 z" style="fill: rgb(147, 51, 234);"/>
  <path opacity="1.000000" stroke="none" d=" M331.000061,136.118607 C349.132904,136.118607 366.765717,136.118607 384.712646,136.118607 C384.712646,141.112701 384.712646,145.847626 384.712646,150.928558 C299.684448,150.928558 214.665955,150.928558 129.324219,150.928558 C129.324219,146.189072 129.324219,141.439957 129.324219,136.118607 C196.357697,136.118607 263.428864,136.118607 331.000061,136.118607 z" style="fill: rgb(147, 51, 234);"/>
  <path opacity="1.000000" stroke="none" d=" M379.347809,490.011292 C368.885345,488.874207 364.065674,483.555756 364.038452,473.580292 C364.030273,470.585602 364.430847,467.538666 364.012085,464.605896 C362.801575,456.128082 367.080475,449.953033 372.217590,444.139740 C373.050354,443.197418 374.711151,442.519409 375.993744,442.512024 C395.127228,442.401520 414.261536,442.388702 433.395416,442.443665 C437.638702,442.455841 444.582458,450.607025 444.864197,455.777344 C445.207855,462.084564 445.524506,468.396851 445.657074,474.711060 C445.843292,483.577942 439.570435,489.892334 430.219666,489.973053 C413.415985,490.118103 396.610260,490.023407 379.347809,490.011292 z" style="fill: rgb(147, 51, 234);"/>
  <path opacity="1.000000" stroke="none" d=" M112.999985,490.037964 C104.503799,490.030396 96.506042,490.119690 88.511826,489.990448 C78.807526,489.833618 72.992485,483.933807 72.929138,474.390350 C72.907028,471.058929 73.350746,467.669189 72.881378,464.406830 C71.687103,456.105957 75.604729,449.916779 80.857498,444.376190 C82.083855,443.082611 84.610046,442.497253 86.545357,442.481750 C104.035843,442.341675 121.527931,442.400879 139.019547,442.401703 C145.712616,442.402008 152.967270,448.475220 153.489365,455.176819 C154.057755,462.472717 154.278137,469.825989 154.102127,477.141022 C153.930084,484.291290 147.525757,489.785339 139.486557,489.968628 C130.828354,490.166077 122.162506,490.029053 112.999985,490.037964 z" style="fill: rgb(147, 51, 234);"/>
  <path opacity="1.000000" stroke="none" d=" M412.346252,375.000183 C412.346252,383.286835 412.346252,391.073456 412.346252,399.173645 C402.202515,399.173645 392.473114,399.173645 382.449036,399.173645 C382.449036,359.517700 382.449036,319.972412 382.449036,280.048370 C392.181396,280.048370 401.900360,280.048370 412.346222,280.048370 C412.346222,311.420502 412.346222,342.960358 412.346252,375.000183 z" style="fill: rgb(147, 51, 234);"/>
  <path opacity="1.000000" stroke="none" d=" M79.987244,219.905319 C78.879242,219.867386 78.208984,219.875809 77.549767,219.794601 C66.641098,218.450836 66.303131,218.044312 66.305176,207.044418 C66.313232,163.750336 66.417068,120.455612 66.157440,77.163101 C66.128685,72.366592 67.719826,70.017097 71.924980,69.144562 C76.501518,68.194969 81.155258,67.617493 86.289917,66.795395 C86.289917,118.409882 86.289917,168.602280 86.289917,219.265625 C84.304642,219.483932 82.367386,219.696960 79.987244,219.905319 z" style="fill: rgb(147, 51, 234);"/>
  <path opacity="1.000000" stroke="none" d=" M447.690613,142.000153 C447.690613,167.121170 447.690613,191.742188 447.690613,217.166245 C442.695435,218.161652 437.901733,219.274643 433.052704,220.034607 C428.973206,220.673981 427.293884,219.090057 427.324371,214.516968 C427.530640,183.560760 427.431488,152.602509 427.431396,121.644928 C427.431335,105.666824 427.431885,89.688713 427.432159,73.710609 C427.432159,71.919044 427.432159,70.127480 427.432159,67.784355 C430.369598,67.784355 432.838867,67.695000 435.299835,67.799828 C445.926056,68.252464 447.690643,70.096931 447.690643,80.583633 C447.690613,100.889137 447.690613,121.194649 447.690613,142.000153 z" style="fill: rgb(147, 51, 234);"/>
  <path opacity="1.000000" stroke="none" d=" M116.883041,22.999924 C130.885361,23.011854 136.145737,28.229132 136.146973,41.641605 C136.149399,67.926964 136.147690,94.212318 136.147690,120.659164 C130.532684,121.665550 126.131569,121.648499 122.454742,116.004951 C117.963264,109.111008 110.526947,106.250450 102.019547,105.723625 C102.019547,78.215538 102.019547,50.848591 102.019547,22.999918 C106.821327,22.999918 111.611710,22.999918 116.883041,22.999924 z" style="fill: rgb(147, 51, 234);"/>
  <path opacity="1.000000" stroke="none" d=" M412.348877,71.000175 C412.348877,82.777489 412.348877,94.054802 412.348877,105.640450 C401.847473,106.284348 394.201996,111.072128 388.546326,119.486336 C387.657135,120.809242 384.962372,120.918495 382.404785,121.840385 C382.293976,119.326424 382.164886,117.750763 382.163971,116.175018 C382.149292,91.060013 382.140930,65.945000 382.153503,40.829998 C382.159454,28.961895 388.082275,23.026787 399.888885,22.998327 C403.856964,22.988762 407.825073,22.996815 412.348877,22.996815 C412.348877,39.050323 412.348877,54.775246 412.348877,71.000175 z" style="fill: rgb(147, 51, 234);"/>
  <path opacity="1.000000" stroke="none" d=" M50.143356,193.457123 C33.499588,191.271286 23.217546,179.792252 23.034739,163.395035 C22.884468,149.916245 22.890162,136.433075 23.040211,122.954231 C23.216475,107.120758 35.501328,94.002533 50.775730,93.963127 C50.775730,97.858276 50.759239,101.780251 50.778378,105.702049 C50.913994,133.493347 51.066750,161.284576 51.169384,189.075974 C51.174690,190.512604 50.771435,191.950745 50.143356,193.457123 z" style="fill: rgb(147, 51, 234);"/>
  <path opacity="1.000000" stroke="none" d=" M462.766113,179.987183 C462.766113,151.055344 462.766113,122.620430 462.766113,93.721703 C471.672272,93.632713 478.378479,97.294128 483.753326,103.627884 C488.310883,108.998497 490.842102,115.343941 490.927368,122.370155 C491.098999,136.516144 491.210907,150.671921 490.876678,164.812546 C490.501648,180.682449 478.422791,192.919983 462.766113,193.304779 C462.766113,189.029327 462.766113,184.756729 462.766113,179.987183 z" style="fill: rgb(147, 51, 234);"/>
  <path opacity="1.000000" stroke="none" d=" M399.137421,135.453339 C400.907837,125.598633 404.638397,121.572090 412.065186,121.272911 C412.065186,136.279739 412.065186,151.277863 412.065186,166.301453 C404.234711,165.613022 399.489166,160.330994 399.148468,151.850998 C398.935211,146.542313 399.109192,141.218048 399.137421,135.453339 z" style="fill: rgb(147, 51, 234);"/>
  <path opacity="1.000000" stroke="none" d=" M101.672050,127.104126 C101.672836,124.830780 101.672836,123.040543 101.672836,121.232254 C108.143700,121.533791 113.280128,125.055557 113.898369,131.212265 C114.721634,139.410614 114.770538,147.815323 113.943695,156.009445 C113.300415,162.384583 108.745148,165.568848 101.671265,166.440018 C101.671265,153.441574 101.671265,140.514404 101.672050,127.104126 z" style="fill: rgb(147, 51, 234);"/>
  <path opacity="1.000000" stroke="none" d=" M102.132385,415.089813 C113.535202,414.715057 124.602394,414.715057 135.906036,414.715057 C135.906036,418.848053 135.906036,422.755463 135.906036,427.008667 C124.775520,427.008667 113.598427,427.008667 101.796753,427.008667 C101.796753,423.252411 101.796753,419.358490 102.132385,415.089813 z" style="fill: rgb(147, 51, 234);"/>
  <path opacity="1.000000" stroke="none" d=" M382.157166,420.989777 C382.157227,418.716034 382.157227,416.919067 382.157227,414.846130 C392.301208,414.846130 402.011200,414.846130 412.035645,414.846130 C412.035645,418.792206 412.035645,422.699341 412.035645,426.976318 C402.297424,426.976318 392.465820,426.976318 382.157104,426.976318 C382.157104,425.038879 382.157104,423.252716 382.157166,420.989777 z" style="fill: rgb(147, 51, 234);"/>
</svg>