<?xml version="1.0" encoding="utf-8"?>
<!-- Generator: Adobe Illustrator 24.1.1, SVG Export Plug-In . SVG Version: 6.00 Build 0)  -->
<svg version="1.1" id="Camada_1" xmlns="http://www.w3.org/2000/svg" xmlns:xlink="http://www.w3.org/1999/xlink" x="0px" y="0px"
	 viewBox="0 0 1000 1000" style="enable-background:new 0 0 1000 1000;" xml:space="preserve">
<style type="text/css">
	.st0{fill:#FFFFFF;}
</style>
<g id="G">
	<g>
		<path class="st0" d="M833.3,674.2c-4.1,180.5-151.7,325.5-333.1,325.5s-329-145-333.1-325.5h144.2
			c4.1,100.8,87.1,181.3,188.9,181.3S685,775,689.1,674.2H833.3z"/>
	</g>
	<g>
		<path class="st0" d="M500.1,0C343.9,0,212.8,107.5,176.7,252.6c-6.4,25.8-9.8,52.8-9.8,80.6c0,60.7,16.2,117.6,44.6,166.6
			c26.4,45.6,63.2,84.3,107.3,113c52.2,33.9,114.5,53.6,181.4,53.6s129.2-19.7,181.4-53.6c44-28.6,80.9-67.4,107.3-113
			c27.1-46.9,43.2-101.1,44.5-158.9c0.1-2.6,0.1-5.2,0.1-7.7V0H500.1z M589.6,499.8c-26.6,14.3-57.1,22.5-89.5,22.5
			s-62.8-8.1-89.5-22.5c-44-23.7-77.5-64.2-91.9-113c-5-17-7.7-35-7.7-53.6c0-28.8,6.4-56.1,18-80.6
			c30.2-64.1,95.5-108.5,171.1-108.5S641,188.5,671.2,252.6c11.5,24.5,18,51.8,18,80.6c0,2.6,0,5.2-0.2,7.7
			c-0.6,15.9-3.2,31.3-7.6,45.9C667.1,435.6,633.6,476.2,589.6,499.8z"/>
	</g>
</g>
</svg>
