<?xml version="1.0" encoding="utf-8"?>
<!-- Generator: Adobe Illustrator 24.1.1, SVG Export Plug-In . SVG Version: 6.00 Build 0)  -->
<svg version="1.1" id="Camada_1" xmlns="http://www.w3.org/2000/svg" xmlns:xlink="http://www.w3.org/1999/xlink" x="0px" y="0px"
	 viewBox="0 0 1539.6 459" style="enable-background:new 0 0 1539.6 459;" xml:space="preserve">
<style type="text/css">
	.st0{fill:#FFFFFF;}
</style>
<image style="display:none;overflow:visible;" width="93" height="123" xlink:href="437A11A5.jpg"  transform="matrix(6.3741 0 0 6.3741 -34 105)">
</image>
<g id="G">
	<g>
		<path class="st0" d="M306,309.6C304.1,392.4,236.3,459,153,459S1.9,392.4,0,309.6h66.2c1.9,46.3,40,83.3,86.7,83.3
			s84.9-37,86.7-83.3H306z"/>
	</g>
	<g>
		<path class="st0" d="M153,0C81.3,0,21.1,49.4,4.5,116C1.6,127.8,0,140.2,0,153c0,27.9,7.5,54,20.5,76.5
			c12.1,20.9,29,38.7,49.3,51.9C93.7,297,122.3,306,153,306s59.3-9,83.3-24.6c20.2-13.1,37.1-30.9,49.3-51.9
			c12.5-21.5,19.8-46.4,20.4-72.9c0-1.2,0-2.4,0-3.6V0H153z M194.1,229.5c-12.2,6.6-26.2,10.3-41.1,10.3s-28.8-3.7-41.1-10.3
			c-20.2-10.9-35.6-29.5-42.2-51.9c-2.3-7.8-3.5-16.1-3.5-24.6c0-13.2,3-25.8,8.3-37c13.9-29.4,43.8-49.8,78.6-49.8
			s64.7,20.4,78.6,49.8c5.3,11.2,8.3,23.8,8.3,37c0,1.2,0,2.4-0.1,3.6c-0.3,7.3-1.5,14.4-3.5,21.1
			C229.7,200,214.3,218.6,194.1,229.5z"/>
	</g>
</g>
<g id="Y">
	<path class="st0" d="M636,0v153c0,1,0,2,0,3c0,0.1,0,0.3,0,0.4v153.2c0,1.1-0.1,2.1-0.1,3.2C632.3,394.1,565.2,459,483,459H330
		v-66.2h153c45.7,0,83.1-35.3,86.6-80.1h0v-33.6C544.9,296.1,515.1,306,483,306c-83.5,0-151.4-66.9-153-150c0-1,0-2,0-3V0h66v157
		h0.1c2.1,46.2,40.2,83,86.9,83c45.1,0,82.1-34.3,86.5-78.1c0.2-1.6,0.3-3.2,0.4-4.9h0.1V0H636z"/>
</g>
<path id="M" class="st0" d="M1208.1,153v153h-66V149h-0.1c-2.1-46.2-40.2-83-86.9-83c-46.7,0-84.8,36.8-86.9,83h-0.1v157H900V149
	h-0.1c-2.1-46.2-40.2-83-86.9-83s-84.8,36.8-86.9,83H726v157h-66V153c0-1,0-2,0-3C661.6,66.9,729.5,0,813,0
	c49.3,0,93.1,23.3,121.1,59.4c28-36.2,71.8-59.4,121-59.4c83.5,0,151.4,66.9,153,150C1208.1,151,1208.1,152,1208.1,153z"/>
<path id="N" class="st0" d="M1539.6,153v153h-66V149h-0.1c-2.1-46.2-40.2-83-86.9-83c-46.7,0-84.8,36.8-86.9,83h-0.1v157h-66V153
	c0-1,0-2,0-3c1.6-83.1,69.5-150,153-150s151.4,66.9,153,150C1539.6,151,1539.6,152,1539.6,153z"/>
</svg>
