<?xml version="1.0" encoding="utf-8"?>
<svg version="1.1" id="Layer_1" x="0px" y="0px" width="100%" viewBox="0 0 511 511" enable-background="new 0 0 511 511" xmlns="http://www.w3.org/2000/svg">
  <path opacity="1.000000" stroke="none" d=" M512.000000,123.536819 C505.653107,135.903809 494.263336,133.629501 483.384796,133.790802 C483.297211,135.430725 483.155884,136.865601 483.153961,138.300659 C483.136658,151.298477 483.186401,164.296555 483.126984,177.294128 C483.092834,184.762222 479.992310,187.813599 472.444855,187.895645 C465.946686,187.966293 459.445129,188.011581 452.948792,187.881470 C446.094513,187.744217 442.944183,184.526108 442.905396,177.631577 C442.833191,164.800781 442.884033,151.969269 442.883667,139.138062 C442.883636,137.513443 442.883667,135.888809 442.883667,134.024139 C431.671356,134.024139 420.907928,134.024139 409.639954,134.024139 C408.763580,142.109116 407.883972,150.170288 407.017029,158.232819 C404.738495,179.423294 402.454224,200.613190 400.195160,221.805756 C399.101379,232.067017 393.229706,238.748062 383.798950,241.762299 C374.316650,244.793015 365.596161,242.507919 358.822998,234.901093 C348.963257,223.827789 339.286957,212.591187 329.526703,201.429260 C328.261383,199.982224 326.961792,198.565125 324.862640,196.225189 C324.862640,198.927948 324.862640,200.506638 324.862640,202.085312 C324.862640,228.914215 324.949036,255.743713 324.765045,282.571350 C324.738861,286.385742 325.990784,287.908417 329.471924,289.296448 C354.619843,299.323517 379.418365,310.276398 404.810638,319.623688 C421.722412,325.849182 429.785828,336.845367 432.100250,354.444214 C436.634033,388.919006 442.278320,423.249878 447.636169,457.613312 C450.449371,475.656342 439.914368,491.151337 422.206329,494.453156 C405.739960,497.523468 389.871246,486.163971 386.957123,468.389404 C382.030548,438.339783 377.551331,408.215393 373.123566,378.087250 C372.587921,374.442505 371.227081,372.667542 367.877869,371.328430 C343.973846,361.771027 320.162140,351.982880 296.276001,342.380188 C294.032196,341.478149 291.479370,340.939514 289.066406,340.926971 C267.737183,340.816223 246.406967,340.825775 225.077530,340.916779 C222.816620,340.926392 220.409195,341.314240 218.322556,342.154419 C194.133072,351.894531 170.014725,361.811646 145.809830,371.513000 C142.812668,372.714294 141.481125,374.303253 141.009720,377.506805 C136.673309,406.976135 132.281479,436.438354 127.681580,465.867554 C124.902939,483.644684 112.601746,495.036163 96.909828,494.897583 C77.379951,494.725128 63.325890,477.777710 66.340019,458.212128 C71.964561,421.701508 77.529594,385.181610 83.051582,348.655365 C85.012619,335.683685 91.867813,326.823212 104.132416,321.895935 C131.103424,311.060364 157.982758,299.996704 184.931763,289.105927 C187.285156,288.154877 188.743271,287.292877 188.728790,284.268433 C188.593185,255.940567 188.639267,227.611847 188.617416,199.283386 C188.617203,198.997589 188.410370,198.711975 187.621231,196.669220 C186.489136,198.507629 185.906876,199.820541 185.007004,200.857880 C175.509171,211.806732 165.892700,222.653290 156.448685,233.648087 C149.449677,241.796371 140.781448,245.070679 130.540848,241.825287 C120.444473,238.625595 114.776497,231.398605 113.675636,220.567184 C110.897697,193.234741 107.908051,165.923828 104.997009,138.604950 C104.841499,137.145569 104.628738,135.692291 104.415901,134.026978 C93.369759,134.026978 82.587387,134.026978 71.344223,134.026978 C71.270149,135.407974 71.128448,136.840851 71.126526,138.273926 C71.109146,151.271744 71.156525,164.269791 71.100525,177.267410 C71.068390,184.726227 67.945625,187.812057 60.415985,187.895370 C53.917858,187.967270 47.416306,188.010345 40.919918,187.881821 C34.041374,187.745758 30.919672,184.570251 30.878998,177.658310 C30.803492,164.827545 30.856550,151.996002 30.856092,139.164795 C30.856035,137.533524 30.856083,135.902237 30.856083,133.937286 C19.556835,133.308121 6.955148,136.498489 1.326179,122.126587 C1.000000,119.299988 1.000000,116.599968 1.329283,113.333267 C7.018476,98.633278 19.607109,101.777939 30.856728,101.114914 C30.856728,99.100220 30.856718,97.470375 30.856730,95.840523 C30.856815,83.181229 30.817438,70.521774 30.871979,57.862713 C30.904051,50.418766 34.015118,47.292839 41.485508,47.184555 C47.813820,47.092827 54.145561,47.093365 60.473896,47.184338 C67.953316,47.291862 71.052086,50.420586 71.080086,57.882397 C71.128197,70.708076 71.093491,83.534073 71.093552,96.359932 C71.093559,97.935631 71.093552,99.511330 71.093552,101.064560 C81.447731,101.064560 91.053314,101.064560 100.628326,101.064560 C102.398567,85.852081 109.585487,76.776024 121.655617,75.958450 C126.522697,75.628784 131.991379,76.814690 136.419754,78.921799 C145.388290,83.189217 148.033142,91.927559 148.960709,101.297234 C160.287125,101.297234 171.117874,101.681580 181.902390,101.142036 C187.664841,100.853745 190.712051,102.591675 193.416550,107.773422 C198.982361,118.437378 207.456924,126.812675 217.719421,133.026138 C255.101837,155.659485 300.823395,143.432220 321.997040,105.188004 C323.707214,102.099075 325.622284,101.169983 328.986328,101.223244 C340.951813,101.412697 352.922089,101.297241 364.767853,101.297241 C370.419189,81.860413 377.194489,74.706642 390.260529,75.786446 C395.106659,76.186943 400.286530,78.337387 404.350739,81.104759 C411.082855,85.688736 413.226471,93.147995 413.195557,101.056946 C423.220367,101.056946 432.817719,101.056946 442.884277,101.056946 C442.884277,99.198700 442.884216,97.575623 442.884247,95.952545 C442.884583,83.126686 442.834503,70.300537 442.905579,57.475071 C442.943939,50.550442 446.032410,47.352108 452.913574,47.200127 C459.739563,47.049366 466.575317,47.026936 473.399780,47.209766 C479.971344,47.385822 483.074890,50.627274 483.117096,57.241062 C483.200012,70.232964 483.142639,83.225769 483.143250,96.218201 C483.143311,97.819580 483.143250,99.420959 483.143250,101.352379 C494.267151,101.310768 505.570343,99.269333 512.000000,111.000000 C512.000000,115.024544 512.000000,119.049088 512.000000,123.536819 M173.291901,133.766006 C166.348755,133.766006 159.405624,133.766006 152.182434,133.766006 C153.222153,143.505432 154.195419,152.622299 155.281555,162.796539 C163.981812,152.838974 171.977554,143.687759 180.646515,133.766022 C177.771408,133.766022 175.996262,133.766022 173.291901,133.766006 M349.419830,152.090271 C352.337036,155.399124 355.254211,158.707993 358.785553,162.713470 C359.879547,152.609802 360.867554,143.484695 361.873505,134.194061 C352.518646,134.194061 343.431854,134.194061 333.789612,134.194061 C339.147705,140.327957 344.050568,145.940735 349.419830,152.090271 z" style="fill: rgb(147, 51, 234);"/>
  <path opacity="1.000000" stroke="none" d=" M308.403473,56.778728 C314.935394,88.133858 298.230438,115.305862 268.512146,122.286469 C246.770340,127.393448 223.574142,117.597046 211.662628,98.277306 C199.783630,79.010307 201.299896,54.410408 215.535751,37.225803 C229.287567,20.625500 247.047699,13.873196 267.996307,18.374395 C288.657745,22.813885 302.113708,36.010098 308.403473,56.778728 z" style="fill: rgb(147, 51, 234);"/>
</svg>